<?xml version="1.0" encoding="UTF-8" standalone="no" ?>
<!DOCTYPE svg PUBLIC "-//W3C//DTD SVG 1.1//EN" "http://www.w3.org/Graphics/SVG/1.1/DTD/svg11.dtd">
<svg xmlns="http://www.w3.org/2000/svg" xmlns:xlink="http://www.w3.org/1999/xlink" version="1.1" width="500" height="500" viewBox="0 0 500 500" xml:space="preserve">
<desc>Created with Fabric.js 5.2.4</desc>
<defs>
</defs>
<g transform="matrix(1 0 0 1 250 250)" id="643c2c29-bb5a-4da2-9703-579e844f28a6"  >
<rect style="stroke: none; stroke-width: 1; stroke-dasharray: none; stroke-linecap: butt; stroke-dashoffset: 0; stroke-linejoin: miter; stroke-miterlimit: 4; fill-rule: nonzero; opacity: 1; visibility: hidden;" vector-effect="non-scaling-stroke"  x="-250" y="-250" rx="0" ry="0" width="500" height="500" />
</g>
<g transform="matrix(Infinity NaN NaN Infinity 0 0)" id="dc771d14-c0cb-44e5-a5e3-38045201281e"  >
</g>
<g transform="matrix(13.44 0 0 13.44 250 199)" id="e973511a-5696-4431-8c48-93808d42c514"  >
<path style="stroke: rgb(0,0,0); stroke-width: 0; stroke-dasharray: none; stroke-linecap: butt; stroke-dashoffset: 0; stroke-linejoin: miter; stroke-miterlimit: 4; fill-rule: nonzero; opacity: 1;" vector-effect="non-scaling-stroke"  transform=" translate(-12, -12)" d="M 12 9.861 C 11.235808893800359 9.86099998592088 10.529667185629204 10.26869107965539 10.14757162846509 10.930499988623893 C 9.765476071300979 11.592308897592394 9.765476071300979 12.407691102407606 10.147571628465093 13.069500011376107 C 10.529667185629204 13.73130892034461 11.235808893800359 14.13900001407912 12 14.139 C 12.764191106199641 14.13900001407912 13.470332814370796 13.73130892034461 13.852428371534907 13.069500011376107 C 14.234523928699021 12.407691102407606 14.234523928699021 11.592308897592394 13.85242837153491 10.930499988623893 C 13.470332814370796 10.26869107965539 12.764191106199641 9.86099998592088 12 9.861 z M 6.008 16.255 L 5.536 16.134999999999998 C 2.018 15.246 0 13.737 0 11.996 C 0 10.255 2.018 8.746 5.536 7.857 L 6.007999999999999 7.738 L 6.140999999999999 8.206000000000001 C 6.497382058016086 9.433712491030077 6.953224120788634 10.63033971083944 7.503999999999999 11.78399999999999 L 7.6049999999999995 11.997 L 7.504 12.209999999999999 C 6.952305562066375 13.363266625471894 6.49643439195295 14.559970254720492 6.141 15.788000000000004 L 6.008 16.255 z M 5.317 8.95 C 2.6430000000000002 9.700999999999999 1.0019999999999998 10.85 1.0019999999999998 11.995999999999999 C 1.0019999999999998 13.140999999999998 2.643 14.29 5.317 15.041999999999998 C 5.644024487612666 14.001931628595933 6.038870886809278 12.984417134557958 6.498999999999995 11.996000000000006 C 6.038344165203895 11.007807459271156 5.643484140845224 9.990257853351931 5.317000000000002 8.949999999999996 z M 17.992 16.255 L 17.859 15.786 C 17.502976326975933 14.558352338221713 17.046777763715884 13.362001707150462 16.49499999999999 12.208999999999978 L 16.394000000000002 11.996 L 16.495 11.783000000000001 C 17.046568545390205 10.629564047724156 17.50275959683903 9.432898664964696 17.858999999999998 8.205000000000007 L 17.992 7.737000000000002 L 18.465 7.856000000000002 C 21.982 8.745000000000001 24 10.254000000000001 24 11.996000000000002 C 24 13.738000000000003 21.982 15.246000000000002 18.465 16.135 L 17.992 16.255000000000003 z M 17.501 11.995999999999999 C 17.981 13.034999999999998 18.378 14.056 18.683 15.041999999999998 C 21.358 14.289999999999997 22.998 13.140999999999998 22.998 11.995999999999999 C 22.998 10.849999999999998 21.357 9.701999999999998 18.683 8.95 C 18.356416966053406 9.990223186679732 17.961559443373275 11.007766345802978 17.501 11.995999999999997 z M 5.31 8.945 L 5.177 8.478 C 4.188 4.992 4.488 2.494 6 1.622 C 7.4830000000000005 0.7660000000000001 9.864 1.7770000000000001 12.359 4.338 L 12.699 4.687 L 12.359 5.0360000000000005 C 11.472456343806513 5.957606623851095 10.662445370697421 6.94988678785385 9.936999999999992 8.003000000000007 L 9.802 8.196 L 9.567 8.216 C 8.29090795322445 8.316597630203542 7.025085699166577 8.52060068832119 5.781999999999986 8.826000000000002 L 5.3100000000000005 8.944999999999999 z M 7.2059999999999995 2.3150000000000004 C 6.938 2.3150000000000004 6.701 2.373 6.5009999999999994 2.4880000000000004 C 5.507 3.0610000000000004 5.3309999999999995 5.053000000000001 6.015999999999999 7.7410000000000005 C 7.0816363665401605 7.5039316549739175 8.161592453186067 7.336576876313356 9.248999999999993 7.240000000000003 C 9.876424305510838 6.347882853035237 10.561906952158832 5.498044718009649 11.300999999999991 4.696000000000003 C 9.740999999999998 3.1769999999999996 8.264 2.315 7.205999999999999 2.315 z M 16.795 22.677 C 16.794 22.677 16.794 22.677 16.795 22.677 C 15.370000000000001 22.677 13.540000000000003 21.604 11.641000000000002 19.654 L 11.301000000000002 19.305 L 11.641000000000002 18.956 C 12.52731401129363 18.034100763212145 13.336995769804945 17.04147975566915 14.061999999999994 15.988000000000008 L 14.197000000000001 15.795 L 14.431000000000001 15.775 C 15.707750537063156 15.674956538987503 16.974255153098753 15.471285741214682 18.218 15.166000000000002 L 18.69 15.047 L 18.824 15.515 C 19.811 18.999000000000002 19.512 21.498 18 22.369 C 17.632733495862933 22.57665849755104 17.216866420656785 22.682954812209545 16.795 22.677 z M 12.699000000000002 19.296 C 14.259000000000002 20.814999999999998 15.736 21.677 16.794 21.677 L 16.795 21.677 C 17.062 21.677 17.3 21.619 17.499000000000002 21.504 C 18.493000000000002 20.931 18.67 18.938000000000002 17.984 16.25 C 16.91808850981139 16.487396944356806 15.8377782329717 16.6547548443867 14.750000000000004 16.750999999999998 C 14.12333622625382 17.64373352161396 13.438166596908385 18.493931818388273 12.698999999999996 19.296 z M 18.69 8.945 L 18.218 8.826 C 16.974416785663998 8.519719370117635 15.707857812001297 8.315705381753698 14.430999999999992 8.216000000000005 L 14.197000000000001 8.196000000000002 L 14.062000000000001 8.003000000000002 C 13.337365755545868 6.949555110672348 12.527658368606579 5.957237135848367 11.641000000000002 5.036000000000007 L 11.301000000000002 4.687000000000001 L 11.641000000000002 4.338000000000001 C 14.135 1.778 16.515 0.767 18 1.622 C 19.512 2.494 19.812 4.992 18.824 8.477 L 18.69 8.945 z M 14.75 7.24 C 15.892 7.344 16.977 7.513 17.984 7.7410000000000005 C 18.67 5.053000000000001 18.493000000000002 3.061000000000001 17.499000000000002 2.4880000000000004 C 16.511000000000003 1.9170000000000005 14.654000000000002 2.7920000000000003 12.699000000000002 4.696000000000001 C 13.437745230937253 5.498079461779688 14.1228930123365 6.3479165928765635 14.749999999999993 7.239999999999992 z M 7.206 22.677 C 6.783795580139199 22.683132651340813 6.367560437209387 22.57683047553453 6 22.369 C 4.4879999999999995 21.498 4.188 19 5.177 15.515 L 5.308999999999999 15.047 L 5.780999999999999 15.166 C 6.935999999999999 15.457 8.209999999999999 15.662 9.565999999999999 15.775 L 9.800999999999998 15.795 L 9.934999999999999 15.988 C 10.660557114141348 17.04134176382112 11.470559160298437 18.03394542731998 12.356999999999992 18.955999999999992 L 12.697 19.305 L 12.357 19.654 C 10.459 21.604 8.629 22.677 7.2059999999999995 22.677 z M 6.016 16.25 C 5.33 18.938 5.507 20.931 6.501 21.503999999999998 C 7.488 22.066999999999997 9.344000000000001 21.198999999999998 11.301 19.296 C 10.562201280320211 18.493349704161204 9.87673583038625 17.64319884154817 9.249000000000008 16.750999999999998 C 8.161542134789519 16.654836718386882 7.081559146029993 16.487477770855637 6.015999999999995 16.249999999999996 z M 12 16.878 C 11.177 16.878 10.331 16.842 9.484 16.772 L 9.249 16.752 L 9.114 16.558999999999997 C 8.634909417339053 15.870599620899101 8.184523781592642 15.162660125303628 7.763999999999999 14.436999999999992 C 7.344724027140775 13.71075855416906 6.955723635627667 12.967454204005085 6.597999999999997 12.209000000000001 L 6.498000000000001 11.995999999999999 L 6.598000000000001 11.783 C 6.955668143968388 11.02451820529246 7.3446697270821195 10.281211578210641 7.763999999999994 9.555000000000007 C 8.178 8.839 8.633000000000001 8.125 9.114 7.433 L 9.249 7.24 L 9.484 7.220000000000001 C 11.158661984171923 7.078002032896938 12.842338015828076 7.0780020328969355 14.517 7.219999999999997 L 14.751 7.24 L 14.885 7.433 C 15.844167885231002 8.810062953778488 16.686120304444714 10.26516546612638 17.401999999999994 11.78299999999999 L 17.503 11.995999999999999 L 17.402 12.208999999999998 C 16.68783572651677 13.72773271212379 15.845801464364934 15.18297666935879 14.885000000000002 16.558999999999997 L 14.751000000000001 16.752 L 14.517000000000001 16.772 C 13.670000000000002 16.842 12.823 16.878 12.000000000000002 16.878 z M 9.803 15.794 C 11.283000000000001 15.905000000000001 12.717 15.905000000000001 14.198 15.794 C 15.024829094709574 14.58525228548122 15.758928314882969 13.315621666984615 16.394000000000002 11.996000000000004 C 15.760054341703203 10.675581853737725 15.025557834530376 9.405842329731176 14.197000000000006 8.19800000000001 C 12.734436439690345 8.086998202220627 11.265563560309644 8.086998202220625 9.802999999999987 8.198 C 8.974080274838716 9.405613969281381 8.239567279729936 10.675381996328777 7.605999999999993 11.996000000000011 C 8.241757852011919 13.315459976089436 8.976176241717022 14.58506445679038 9.803000000000004 15.794000000000002 z" stroke-linecap="round" />
</g>
<g transform="matrix(1 0 0 1 250 392.5)" style="" id="7a48a526-dae4-477f-9f04-2b62cbd0a673"  >
		<text xml:space="preserve" font-family="Roboto" font-size="115" font-style="normal" font-weight="900" style="stroke: none; stroke-width: 1; stroke-dasharray: none; stroke-linecap: butt; stroke-dashoffset: 0; stroke-linejoin: miter; stroke-miterlimit: 4; fill-rule: nonzero; opacity: 1; white-space: pre;" ><tspan x="-140" y="40" >React</tspan></text>
</g>
</svg>